<svg width="2656" height="2656" viewBox="0 0 2656 2656" fill="none" xmlns="http://www.w3.org/2000/svg">
<circle cx="1328" cy="1328" r="1328" fill="#D9D9D9"/>
<rect x="1237.99" y="563.602" width="956.568" height="1294.63" rx="114" transform="rotate(10.1256 1237.99 563.602)" fill="#F5F5F5" stroke="#AAAAAA" stroke-width="20" stroke-dasharray="92 92"/>
<rect x="475.603" y="731.846" width="956.568" height="1294.63" rx="114" transform="rotate(-10.13 475.603 731.846)" fill="#F5F5F5" stroke="#AAAAAA" stroke-width="20" stroke-dasharray="92 92"/>
<rect x="705" y="525" width="1249" height="1553" rx="114" fill="#F5F5F5" stroke="#AAAAAA" stroke-width="20" stroke-dasharray="92 92"/>
<circle cx="1330" cy="1301" r="403" fill="#D9D9D9"/>
<path d="M1362 1125C1362 1107.3 1347.7 1093 1330 1093C1312.3 1093 1298 1107.3 1298 1125V1269H1154C1136.3 1269 1122 1283.3 1122 1301C1122 1318.7 1136.3 1333 1154 1333H1298V1477C1298 1494.7 1312.3 1509 1330 1509C1347.7 1509 1362 1494.7 1362 1477V1333H1506C1523.7 1333 1538 1318.7 1538 1301C1538 1283.3 1523.7 1269 1506 1269H1362V1125Z" fill="#AAAAAA"/>
</svg>
